<svg width="14" height="10" viewBox="0 0 14 10" fill="none" xmlns="http://www.w3.org/2000/svg">
<path id="Vector" d="M13.1242 0.197563C12.9857 0.201692 12.8541 0.259601 12.7575 0.359022L4.6013 8.51527L1.24505 5.15902C1.1959 5.10784 1.13704 5.06697 1.07191 5.03882C1.00677 5.01067 0.936673 4.99579 0.865718 4.99507C0.794763 4.99435 0.724377 5.00779 0.658682 5.03461C0.592988 5.06143 0.533305 5.10109 0.48313 5.15127C0.432954 5.20144 0.393295 5.26113 0.366474 5.32682C0.339653 5.39252 0.32621 5.4629 0.326932 5.53386C0.327654 5.60481 0.342526 5.67491 0.370678 5.74005C0.39883 5.80518 0.439696 5.86404 0.490882 5.91319L4.22422 9.64652C4.32424 9.7465 4.45987 9.80267 4.6013 9.80267C4.74272 9.80267 4.87836 9.7465 4.97838 9.64652L13.5117 1.11319C13.5888 1.03827 13.6414 0.941826 13.6627 0.836483C13.684 0.731139 13.673 0.621814 13.6311 0.522835C13.5893 0.423856 13.5184 0.33984 13.428 0.281798C13.3375 0.223756 13.2316 0.194395 13.1242 0.197563Z" fill="#4C8BF5"/>
</svg>
