<svg width="98" height="17" viewBox="0 0 98 17" fill="none" xmlns="http://www.w3.org/2000/svg">
<path d="M7.30469 16H4.27734V4.24219H0.400391V1.72266H11.1816V4.24219H7.30469V16ZM17.6465 4.87695C18.6556 4.87695 19.5247 5.07227 20.2539 5.46289C20.9831 5.84701 21.5462 6.4069 21.9434 7.14258C22.3405 7.87826 22.5391 8.77669 22.5391 9.83789V11.2832H15.498C15.5306 12.123 15.7812 12.7839 16.25 13.2656C16.7253 13.7409 17.3828 13.9785 18.2227 13.9785C18.9193 13.9785 19.5573 13.9069 20.1367 13.7637C20.7161 13.6204 21.3118 13.4056 21.9238 13.1191V15.4238C21.3835 15.6908 20.8171 15.8861 20.2246 16.0098C19.6387 16.1335 18.9258 16.1953 18.0859 16.1953C16.9922 16.1953 16.0221 15.9935 15.1758 15.5898C14.3359 15.1862 13.6751 14.571 13.1934 13.7441C12.7181 12.9173 12.4805 11.8757 12.4805 10.6191C12.4805 9.3431 12.6953 8.2819 13.125 7.43555C13.5612 6.58268 14.1667 5.94466 14.9414 5.52148C15.7161 5.0918 16.6178 4.87695 17.6465 4.87695ZM17.666 6.99609C17.0866 6.99609 16.6048 7.18164 16.2207 7.55273C15.8431 7.92383 15.625 8.50651 15.5664 9.30078H19.7461C19.7396 8.85807 19.6582 8.46419 19.502 8.11914C19.3522 7.77409 19.1243 7.50065 18.8184 7.29883C18.5189 7.09701 18.1348 6.99609 17.666 6.99609ZM29.3945 16.1953C28.3138 16.1953 27.3926 16 26.6309 15.6094C25.8691 15.2122 25.2897 14.6003 24.8926 13.7734C24.4954 12.9466 24.2969 11.8887 24.2969 10.5996C24.2969 9.26497 24.5215 8.17773 24.9707 7.33789C25.4264 6.49154 26.0547 5.86979 26.8555 5.47266C27.6628 5.07552 28.597 4.87695 29.6582 4.87695C30.4134 4.87695 31.0645 4.95182 31.6113 5.10156C32.1647 5.24479 32.6465 5.41732 33.0566 5.61914L32.1777 7.92383C31.709 7.73503 31.2728 7.58203 30.8691 7.46484C30.4655 7.34115 30.0618 7.2793 29.6582 7.2793C29.1374 7.2793 28.7044 7.40299 28.3594 7.65039C28.0143 7.89128 27.7572 8.25586 27.5879 8.74414C27.4186 9.23242 27.334 9.8444 27.334 10.5801C27.334 11.3027 27.4251 11.9017 27.6074 12.377C27.7897 12.8522 28.0534 13.207 28.3984 13.4414C28.7435 13.6693 29.1634 13.7832 29.6582 13.7832C30.2767 13.7832 30.8268 13.7018 31.3086 13.5391C31.7904 13.3698 32.2591 13.1354 32.7148 12.8359V15.3848C32.2591 15.6712 31.7806 15.8763 31.2793 16C30.7845 16.1302 30.1562 16.1953 29.3945 16.1953ZM38.2324 0.804688V3.90039C38.2324 4.44076 38.2129 4.95508 38.1738 5.44336C38.1413 5.93164 38.1152 6.27669 38.0957 6.47852H38.252C38.4863 6.10091 38.763 5.79492 39.082 5.56055C39.4076 5.32617 39.7656 5.15365 40.1562 5.04297C40.5469 4.93229 40.9668 4.87695 41.416 4.87695C42.2038 4.87695 42.8906 5.01693 43.4766 5.29688C44.0625 5.57031 44.5182 6.00326 44.8438 6.5957C45.1693 7.18164 45.332 7.94336 45.332 8.88086V16H42.3535V9.62305C42.3535 8.8418 42.2103 8.2526 41.9238 7.85547C41.6374 7.45833 41.1947 7.25977 40.5957 7.25977C39.9967 7.25977 39.5247 7.39974 39.1797 7.67969C38.8346 7.95312 38.5905 8.36003 38.4473 8.90039C38.304 9.43424 38.2324 10.0885 38.2324 10.8633V16H35.2539V0.804688H38.2324ZM56.8555 16H48.6328V1.72266H56.8555V4.20312H51.6602V7.33789H56.4941V9.81836H51.6602V13.5H56.8555V16ZM64.209 13.8223C64.5345 13.8223 64.8503 13.7897 65.1562 13.7246C65.4688 13.6595 65.778 13.5781 66.084 13.4805V15.6973C65.765 15.8405 65.3678 15.9577 64.8926 16.0488C64.4238 16.1465 63.9095 16.1953 63.3496 16.1953C62.6986 16.1953 62.1126 16.0911 61.5918 15.8828C61.0775 15.668 60.6706 15.3001 60.3711 14.7793C60.0781 14.252 59.9316 13.5195 59.9316 12.582V7.31836H58.5059V6.05859L60.1465 5.0625L61.0059 2.75781H62.9102V5.08203H65.9668V7.31836H62.9102V12.582C62.9102 12.9987 63.0273 13.3112 63.2617 13.5195C63.5026 13.7214 63.8184 13.8223 64.209 13.8223ZM71.2793 0.804688V3.90039C71.2793 4.44076 71.2598 4.95508 71.2207 5.44336C71.1882 5.93164 71.1621 6.27669 71.1426 6.47852H71.2988C71.5332 6.10091 71.8099 5.79492 72.1289 5.56055C72.4544 5.32617 72.8125 5.15365 73.2031 5.04297C73.5938 4.93229 74.0137 4.87695 74.4629 4.87695C75.2507 4.87695 75.9375 5.01693 76.5234 5.29688C77.1094 5.57031 77.5651 6.00326 77.8906 6.5957C78.2161 7.18164 78.3789 7.94336 78.3789 8.88086V16H75.4004V9.62305C75.4004 8.8418 75.2572 8.2526 74.9707 7.85547C74.6842 7.45833 74.2415 7.25977 73.6426 7.25977C73.0436 7.25977 72.5716 7.39974 72.2266 7.67969C71.8815 7.95312 71.6374 8.36003 71.4941 8.90039C71.3509 9.43424 71.2793 10.0885 71.2793 10.8633V16H68.3008V0.804688H71.2793ZM84.4238 5.08203V16H81.4453V5.08203H84.4238ZM82.9395 0.804688C83.3822 0.804688 83.763 0.908854 84.082 1.11719C84.401 1.31901 84.5605 1.69987 84.5605 2.25977C84.5605 2.81315 84.401 3.19727 84.082 3.41211C83.763 3.62044 83.3822 3.72461 82.9395 3.72461C82.4902 3.72461 82.1061 3.62044 81.7871 3.41211C81.4746 3.19727 81.3184 2.81315 81.3184 2.25977C81.3184 1.69987 81.4746 1.31901 81.7871 1.11719C82.1061 0.908854 82.4902 0.804688 82.9395 0.804688ZM97.4805 10.5215C97.4805 11.4329 97.3568 12.2402 97.1094 12.9434C96.8685 13.6465 96.5137 14.2422 96.0449 14.7305C95.5827 15.2122 95.0228 15.5768 94.3652 15.8242C93.7142 16.0716 92.9785 16.1953 92.1582 16.1953C91.39 16.1953 90.6836 16.0716 90.0391 15.8242C89.401 15.5768 88.8444 15.2122 88.3691 14.7305C87.9004 14.2422 87.5358 13.6465 87.2754 12.9434C87.0215 12.2402 86.8945 11.4329 86.8945 10.5215C86.8945 9.31055 87.1094 8.28516 87.5391 7.44531C87.9688 6.60547 88.5807 5.96745 89.375 5.53125C90.1693 5.09505 91.1165 4.87695 92.2168 4.87695C93.2389 4.87695 94.1439 5.09505 94.9316 5.53125C95.7259 5.96745 96.3477 6.60547 96.7969 7.44531C97.2526 8.28516 97.4805 9.31055 97.4805 10.5215ZM89.9316 10.5215C89.9316 11.2376 90.0098 11.8398 90.166 12.3281C90.3223 12.8164 90.5664 13.1842 90.8984 13.4316C91.2305 13.679 91.6634 13.8027 92.1973 13.8027C92.7246 13.8027 93.151 13.679 93.4766 13.4316C93.8086 13.1842 94.0495 12.8164 94.1992 12.3281C94.3555 11.8398 94.4336 11.2376 94.4336 10.5215C94.4336 9.79883 94.3555 9.19987 94.1992 8.72461C94.0495 8.24284 93.8086 7.88151 93.4766 7.64062C93.1445 7.39974 92.7116 7.2793 92.1777 7.2793C91.39 7.2793 90.8171 7.54948 90.459 8.08984C90.1074 8.63021 89.9316 9.44076 89.9316 10.5215Z" fill="#4C8BF5"/>
</svg>
